<svg width="64" height="26" viewBox="0 0 64 26" fill="none" xmlns="http://www.w3.org/2000/svg">
    <rect x="2" width="60" height="25" rx="12.5" fill="#F16622"/>
    <path
        d="M2 12C2 5.37258 7.37258 0 14 0H50C56.6274 0 62 5.37258 62 12V12C62 18.6274 56.6274 24 50 24H14C7.37258 24 2 18.6274 2 12V12Z"
        fill="url(#paint0_linear_4008_1413)"/>
    <g filter="url(#filter0_iii_4008_1413)">
        <path
            d="M2 12.5C2 6.14873 7.14872 1 13.5 1H50.5C56.8513 1 62 6.14873 62 12.5V12.5C62 18.8513 56.8513 24 50.5 24H13.5C7.14872 24 2 18.8513 2 12.5V12.5Z"
            fill="url(#paint1_linear_4008_1413)"/>
    </g>
    <g filter="url(#filter1_f_4008_1413)">
        <path
            d="M50.5 24C56.8513 24 62 18.8513 62 12.5C62 12.3325 61.9964 12.1658 61.9893 12C61.7275 18.1193 56.6837 23 50.5 23L13.5 23C7.31625 23 2.27245 18.1193 2.01067 12C2.00358 12.1658 2 12.3325 2 12.5C2 18.8513 7.14873 24 13.5 24L50.5 24Z"
            fill="#FFA800"/>
    </g>
    <defs>
        <filter id="filter0_iii_4008_1413" x="2" y="-3" width="64" height="33" filterUnits="userSpaceOnUse"
                color-interpolation-filters="sRGB">
            <feFlood flood-opacity="0" result="BackgroundImageFix"/>
            <feBlend mode="normal" in="SourceGraphic" in2="BackgroundImageFix" result="shape"/>
            <feColorMatrix in="SourceAlpha" type="matrix" values="0 0 0 0 0 0 0 0 0 0 0 0 0 0 0 0 0 0 127 0"
                           result="hardAlpha"/>
            <feOffset dx="4" dy="6"/>
            <feGaussianBlur stdDeviation="4"/>
            <feComposite in2="hardAlpha" operator="arithmetic" k2="-1" k3="1"/>
            <feColorMatrix type="matrix" values="0 0 0 0 1 0 0 0 0 1 0 0 0 0 1 0 0 0 0.12 0"/>
            <feBlend mode="normal" in2="shape" result="effect1_innerShadow_4008_1413"/>
            <feColorMatrix in="SourceAlpha" type="matrix" values="0 0 0 0 0 0 0 0 0 0 0 0 0 0 0 0 0 0 127 0"
                           result="hardAlpha"/>
            <feOffset dy="-4"/>
            <feGaussianBlur stdDeviation="2"/>
            <feComposite in2="hardAlpha" operator="arithmetic" k2="-1" k3="1"/>
            <feColorMatrix type="matrix" values="0 0 0 0 0 0 0 0 0 0 0 0 0 0 0 0 0 0 0.11 0"/>
            <feBlend mode="normal" in2="effect1_innerShadow_4008_1413" result="effect2_innerShadow_4008_1413"/>
            <feColorMatrix in="SourceAlpha" type="matrix" values="0 0 0 0 0 0 0 0 0 0 0 0 0 0 0 0 0 0 127 0"
                           result="hardAlpha"/>
            <feOffset dy="-4"/>
            <feGaussianBlur stdDeviation="11"/>
            <feComposite in2="hardAlpha" operator="arithmetic" k2="-1" k3="1"/>
            <feColorMatrix type="matrix" values="0 0 0 0 1 0 0 0 0 1 0 0 0 0 1 0 0 0 0.25 0"/>
            <feBlend mode="normal" in2="effect2_innerShadow_4008_1413" result="effect3_innerShadow_4008_1413"/>
        </filter>
        <filter id="filter1_f_4008_1413" x="0" y="10" width="64" height="16" filterUnits="userSpaceOnUse"
                color-interpolation-filters="sRGB">
            <feFlood flood-opacity="0" result="BackgroundImageFix"/>
            <feBlend mode="normal" in="SourceGraphic" in2="BackgroundImageFix" result="shape"/>
            <feGaussianBlur stdDeviation="1" result="effect1_foregroundBlur_4008_1413"/>
        </filter>
        <linearGradient id="paint0_linear_4008_1413" x1="32" y1="0" x2="32" y2="24" gradientUnits="userSpaceOnUse">
            <stop offset="0.025" stop-color="#FFED86"/>
            <stop offset="1" stop-color="#FFBE07"/>
        </linearGradient>
        <linearGradient id="paint1_linear_4008_1413" x1="32" y1="-7.21429" x2="48.7609" y2="21.6697"
                        gradientUnits="userSpaceOnUse">
            <stop stop-color="#F9B021"/>
            <stop offset="1" stop-color="#ED5D3F"/>
        </linearGradient>
    </defs>
</svg>
