<svg width="38" height="38" viewBox="0 0 38 38" fill="none" xmlns="http://www.w3.org/2000/svg">
    <g filter="url(#filter0_d_0_1551)">
        <g clip-path="url(#clip0_0_1551)">
            <rect x="4" width="30" height="30" rx="15" fill="#8D504B"/>
            <path
                d="M24.6086 10.4859L24.6085 10.4771L24.6081 10.4682C24.5836 9.95645 24.3946 9.44005 24.0055 9.03352C23.1776 8.16853 21.8329 8.16853 21.005 9.03352L18.6488 11.4953C18.5623 11.5857 18.4319 11.5857 18.3453 11.4953C18.3453 11.4953 18.3453 11.4953 18.3453 11.4953L15.9962 9.03397L15.9962 9.03397L15.9942 9.03189C15.1667 8.17605 13.8245 8.17605 12.9969 9.03189L12.9969 9.03189L12.9953 9.03352C12.6062 9.44005 12.4172 9.95644 12.3928 10.4682L12.3923 10.4788V10.4893V11.3541C12.3923 11.8993 12.6023 12.4394 12.9921 12.8554L12.9921 12.8554L12.9953 12.8587L15.1729 15.1339L12.9967 17.4076C12.5666 17.8492 12.3709 18.4399 12.3856 19.0104V19.8482V19.8708L12.3879 19.8932C12.4365 20.3671 12.6244 20.8468 12.9887 21.2273C13.8165 22.0923 15.1612 22.0923 15.9891 21.2273L18.3453 18.7656C18.4319 18.6751 18.5623 18.6751 18.6488 18.7656L21.005 21.2273C21.8329 22.0923 23.1776 22.0923 24.0055 21.2273C24.3857 20.83 24.5834 20.3148 24.6081 19.7996L24.6086 19.789V19.7785V18.9826C24.6234 18.4145 24.4247 17.8401 24.0055 17.4021L21.8279 15.1269L24.0055 12.8518C24.4103 12.4288 24.5988 11.8951 24.615 11.3605L24.6153 11.3521L24.6152 11.3437L24.6086 10.4859Z"
                fill="#AEAEAE"/>
            <path
                d="M24.6086 10.4859L24.6085 10.4771L24.6081 10.4682C24.5836 9.95645 24.3946 9.44005 24.0055 9.03352C23.1776 8.16853 21.8329 8.16853 21.005 9.03352L18.6488 11.4953C18.5623 11.5857 18.4319 11.5857 18.3453 11.4953C18.3453 11.4953 18.3453 11.4953 18.3453 11.4953L15.9962 9.03397L15.9962 9.03397L15.9942 9.03189C15.1667 8.17605 13.8245 8.17605 12.9969 9.03189L12.9969 9.03189L12.9953 9.03352C12.6062 9.44005 12.4172 9.95644 12.3928 10.4682L12.3923 10.4788V10.4893V11.3541C12.3923 11.8993 12.6023 12.4394 12.9921 12.8554L12.9921 12.8554L12.9953 12.8587L15.1729 15.1339L12.9967 17.4076C12.5666 17.8492 12.3709 18.4399 12.3856 19.0104V19.8482V19.8708L12.3879 19.8932C12.4365 20.3671 12.6244 20.8468 12.9887 21.2273C13.8165 22.0923 15.1612 22.0923 15.9891 21.2273L18.3453 18.7656C18.4319 18.6751 18.5623 18.6751 18.6488 18.7656L21.005 21.2273C21.8329 22.0923 23.1776 22.0923 24.0055 21.2273C24.3857 20.83 24.5834 20.3148 24.6081 19.7996L24.6086 19.789V19.7785V18.9826C24.6234 18.4145 24.4247 17.8401 24.0055 17.4021L21.8279 15.1269L24.0055 12.8518C24.4103 12.4288 24.5988 11.8951 24.615 11.3605L24.6153 11.3521L24.6152 11.3437L24.6086 10.4859Z"
                stroke="#A6A6A6" stroke-width="0.882609" style="mix-blend-mode:multiply"/>
            <path fill-rule="evenodd" clip-rule="evenodd"
                  d="M13.3162 9.31613C13.9696 8.6694 15.023 8.6694 15.6764 9.31613L18.03 11.6697C18.29 11.9297 18.71 11.9297 18.9701 11.6697L21.3236 9.31613C21.977 8.66273 23.0305 8.66273 23.6839 9.31613C24.3373 9.96953 24.3373 11.023 23.6839 11.6764L21.3303 14.0299C21.0703 14.29 21.0703 14.71 21.3303 14.97L23.6839 17.3236C24.3373 17.977 24.3373 19.0305 23.6839 19.6839C23.0305 20.3373 21.977 20.3373 21.3236 19.6839L18.9701 17.3303C18.71 17.0703 18.29 17.0703 18.03 17.3303L15.6764 19.6839C15.023 20.3373 13.9696 20.3373 13.3162 19.6839C12.6628 19.0305 12.6628 17.977 13.3162 17.3236L15.6697 14.97C15.9298 14.71 15.9298 14.29 15.6697 14.0299L13.3162 11.6764C12.6694 11.023 12.6694 9.96953 13.3162 9.31613Z"
                  fill="white"/>
        </g>
    </g>
    <defs>
        <filter id="filter0_d_0_1551" x="0" y="0" width="38" height="38" filterUnits="userSpaceOnUse"
                color-interpolation-filters="sRGB">
            <feFlood flood-opacity="0" result="BackgroundImageFix"/>
            <feColorMatrix in="SourceAlpha" type="matrix" values="0 0 0 0 0 0 0 0 0 0 0 0 0 0 0 0 0 0 127 0"
                           result="hardAlpha"/>
            <feOffset dy="4"/>
            <feGaussianBlur stdDeviation="2"/>
            <feComposite in2="hardAlpha" operator="out"/>
            <feColorMatrix type="matrix" values="0 0 0 0 0 0 0 0 0 0 0 0 0 0 0 0 0 0 0.25 0"/>
            <feBlend mode="normal" in2="BackgroundImageFix" result="effect1_dropShadow_0_1551"/>
            <feBlend mode="normal" in="SourceGraphic" in2="effect1_dropShadow_0_1551" result="shape"/>
        </filter>
        <clipPath id="clip0_0_1551">
            <rect x="4" width="30" height="30" rx="15" fill="white"/>
        </clipPath>
    </defs>
</svg>
