<svg width="23" height="23" viewBox="0 0 23 23" fill="none" xmlns="http://www.w3.org/2000/svg">
    <path
        d="M3.79876 3.23699C3.24367 3.65778 2.03289 2.88858 1.22607 2.52565C0.418927 2.16213 -0.539794 2.72319 0.368258 4.21873C1.2762 5.71428 2.28538 6.27584 1.37743 6.27584C0.469273 6.27584 0.82223 7.8652 3.0923 7.58457C3.61456 7.5202 4.03104 7.50898 4.36952 7.52841C4.35677 7.26139 4.32911 7.07127 4.31453 6.99238C4.07285 6.37906 3.95077 5.74522 3.95077 5.10677C3.95077 4.31865 4.13292 3.57038 4.45552 2.89128C4.19644 2.99871 3.95736 3.11645 3.79876 3.23699Z"
        fill="white"/>
    <path
        d="M11.6673 23C17.601 23 21.7156 20.3385 22.4128 17.2033C23.8243 10.8457 22.4128 8.50795 21.1013 8.60386C19.7901 8.69998 18.3772 11.2193 16.8639 11.3129C15.3505 11.4066 15.7536 9.91039 13.5342 9.91039C12.9632 9.91039 12.5641 9.71706 12.2841 9.43243C14.0947 8.6386 15.3506 6.93491 15.3506 4.9552C15.3506 2.21879 12.9561 0 10.0033 0C7.05035 0 4.65603 2.21879 4.65603 4.9553C4.65603 5.56751 4.78147 6.15089 5.00035 6.69223C5.00035 6.69223 5.75239 10.1102 2.53667 12.9023C0.713868 14.485 0.922812 17.2034 0.922812 17.2034C0.922164 20.4039 5.73349 23 11.6673 23ZM7.5483 2.41853C8.02182 2.41853 8.40503 2.77404 8.40503 3.21236C8.40503 3.65067 8.02139 4.00619 7.5483 4.00619C7.07477 4.00619 6.69113 3.65067 6.69113 3.21236C6.69113 2.77404 7.07477 2.41853 7.5483 2.41853Z"
        fill="white"/>
</svg>
    