<svg width="26" height="20" viewBox="0 0 26 20" fill="none" xmlns="http://www.w3.org/2000/svg">
    <path
        d="M15.1668 10.5557L20.5832 0C24.6448 4.16567 25.6406 10.2823 23.5752 15.407C24.5297 16.464 25.3588 17.6197 26 18.889L24.9168 20C22.9762 18.6263 20.2956 17.7777 17.3332 17.7777H15.1668C12.8151 17.7777 10.4605 17.0377 8.66613 15.5557C7.0031 14.182 4.7047 13.3333 2.16677 13.3333C0.970125 13.3333 0 12.587 0 11.6667L3.25 10.5557C3.25 8.713 4.70405 7.22233 6.49903 7.22233C7.39668 7.22233 8.20885 7.59467 8.79645 8.199L10.3282 9.77033C10.7494 10.202 11.5824 10.556 12.1768 10.556L15.1668 10.5557Z"
        fill="white" />
    <path d="M14.185 8.889L17.2952 2.83C16.1177 1.11967 14.1807 0 11.9844 0V8.889H14.185Z"
        fill="white" />
</svg>
    