<svg width="22" height="22" viewBox="0 0 22 22" fill="none" xmlns="http://www.w3.org/2000/svg">
    <path
        d="M21.9855 15.3626C21.9681 15.3005 21.9357 15.2437 21.8912 15.197C21.8467 15.1504 21.7914 15.1155 21.7303 15.0953C20.945 14.8436 20.1598 14.6156 19.351 14.4112C19.8036 13.1966 20.0311 11.9095 20.0224 10.6131V3.53597C20.0224 3.43169 19.981 3.33169 19.9074 3.25795C19.8338 3.18422 19.7339 3.1428 19.6298 3.1428H19.4453C16.4383 3.11235 13.5363 2.0319 11.2397 0.0878369C11.1698 0.0310125 11.0825 0 10.9924 0C10.9023 0 10.815 0.0310125 10.745 0.0878369C8.4485 2.0319 5.54645 3.11235 2.53951 3.1428H2.35498C2.25085 3.1428 2.15099 3.18422 2.07736 3.25795C2.00374 3.33169 1.96237 3.43169 1.96237 3.53597V10.6131C1.96059 11.9052 2.19339 13.1868 2.64944 14.3954C1.83674 14.6038 1.03581 14.8279 0.270225 15.0796C0.209053 15.0997 0.153779 15.1347 0.109275 15.1813C0.0647713 15.2279 0.0324049 15.2848 0.0150293 15.3469C-0.00239258 15.4081 -0.00470603 15.4727 0.0082877 15.535C0.0212814 15.5973 0.0491937 15.6556 0.0896252 15.7047C0.509717 16.208 0.921957 16.723 1.31849 17.242C1.26745 17.8986 1.23212 18.567 1.20856 19.2315C1.20605 19.2951 1.21904 19.3585 1.24639 19.416C1.27375 19.4735 1.31466 19.5235 1.36561 19.5617C1.41606 19.5996 1.47486 19.6247 1.53705 19.6349C1.59923 19.6452 1.66297 19.6403 1.72288 19.6207C3.07679 19.1753 4.46107 18.8284 5.86491 18.5827L10.7725 21.9326C10.8375 21.9765 10.914 22 10.9924 22C11.0708 22 11.1473 21.9765 11.2122 21.9326L16.1199 18.5827C17.5246 18.8399 18.9089 19.1987 20.2619 19.6561C20.3022 19.6621 20.3433 19.6621 20.3836 19.6561C20.4877 19.6561 20.5876 19.6147 20.6612 19.5409C20.7348 19.4672 20.7762 19.3672 20.7762 19.2629C20.7527 18.5985 20.7173 17.9301 20.6663 17.2735C21.0589 16.7545 21.4751 16.2394 21.8952 15.7362C21.9409 15.6868 21.9732 15.6266 21.989 15.5612C22.0048 15.4958 22.0036 15.4274 21.9855 15.3626ZM10.9924 19.2157L9.48477 18.1856C10.4892 18.1345 11.4956 18.1345 12.5 18.1856L10.9924 19.2157ZM17.6667 10.6957C17.6692 11.8025 17.4419 12.8977 16.9993 13.9118C13.0266 13.1963 8.95821 13.1963 4.98546 13.9118C4.54283 12.8977 4.31554 11.8025 4.31803 10.6957V5.28559C6.75025 5.21055 9.09242 4.34684 10.9924 2.82433C12.8924 4.34684 15.2345 5.21055 17.6667 5.28559V10.6957Z"
        fill="white" />
    <path
        d="M10.8275 4.83738L10.0187 7.31437C10.0073 7.34933 9.98527 7.37986 9.95572 7.4017C9.92617 7.42355 9.89055 7.43563 9.85382 7.43625H7.24297C7.20568 7.43477 7.16891 7.44541 7.13816 7.4666C7.10741 7.48779 7.08435 7.51838 7.07241 7.55379C7.06048 7.58921 7.06032 7.62754 7.07195 7.66305C7.08359 7.69856 7.1064 7.72935 7.13696 7.75079L9.25313 9.28417C9.2825 9.30559 9.30438 9.33573 9.31566 9.37032C9.32693 9.40491 9.32703 9.44218 9.31594 9.47683L8.50717 11.9578C8.49465 11.9932 8.49402 12.0318 8.50536 12.0676C8.5167 12.1035 8.5394 12.1347 8.57002 12.1565C8.60064 12.1782 8.63752 12.1894 8.67506 12.1883C8.7126 12.1872 8.74876 12.1739 8.77807 12.1504L10.8903 10.6131C10.9194 10.5901 10.9554 10.5777 10.9924 10.5777C11.0294 10.5777 11.0654 10.5901 11.0945 10.6131L13.2067 12.1425C13.236 12.1661 13.2722 12.1794 13.3097 12.1805C13.3473 12.1816 13.3841 12.1704 13.4148 12.1486C13.4454 12.1268 13.4681 12.0956 13.4794 12.0598C13.4908 12.0239 13.4901 11.9853 13.4776 11.9499L12.6688 9.46896C12.6577 9.43431 12.6578 9.39705 12.6691 9.36246C12.6804 9.32787 12.7023 9.29772 12.7316 9.27631L14.8478 7.74293C14.8784 7.72148 14.9012 7.6907 14.9128 7.65519C14.9245 7.61967 14.9243 7.58134 14.9124 7.54593C14.9004 7.51052 14.8774 7.47993 14.8466 7.45874C14.8159 7.43755 14.7791 7.4269 14.7418 7.42839H12.131C12.0942 7.42776 12.0586 7.41569 12.0291 7.39384C11.9995 7.372 11.9775 7.34147 11.9661 7.30651L11.1573 4.82951C11.1455 4.79455 11.1229 4.76428 11.0927 4.74312C11.0625 4.72196 11.0263 4.71102 10.9895 4.7119C10.9527 4.71277 10.9171 4.72542 10.8879 4.748C10.8588 4.77058 10.8376 4.80189 10.8275 4.83738Z"
        fill="white" />
</svg>
    