<svg width="24" height="22" viewBox="0 0 24 22" fill="none" xmlns="http://www.w3.org/2000/svg">
    <path
        d="M22.139 10.4211V21.4211C22.139 21.7406 21.8718 22 21.5426 22H10.8071V13.3158C10.8071 12.9962 10.5399 12.7368 10.2107 12.7368H5.43939C5.11017 12.7368 4.84297 12.9962 4.84297 13.3158V22H2.45731C2.12809 22 1.8609 21.7406 1.8609 21.4211V10.4211H2.06368C2.93445 10.4211 3.73364 10.0071 4.22867 9.35C4.2406 9.36158 4.24954 9.37895 4.25849 9.39342C4.77141 10.0447 5.54973 10.4211 6.39664 10.4211H7.14812C8.05169 10.4211 8.85387 9.98684 9.34293 9.31526C9.38169 9.36158 9.42046 9.41079 9.46221 9.4571C10.0258 10.0708 10.8369 10.4211 11.6839 10.4211H12.3161C13.163 10.4211 13.9741 10.0708 14.5377 9.4571C14.5795 9.41079 14.6182 9.36158 14.657 9.31526C15.146 9.98684 15.9482 10.4211 16.8518 10.4211H17.6033C18.4502 10.4211 19.2285 10.0447 19.7414 9.39342C19.7504 9.37895 19.7593 9.36158 19.7712 9.35C20.2663 10.0071 21.0655 10.4211 21.9362 10.4211H22.139ZM19.1569 17.9474V13.3158C19.1569 12.9962 18.8897 12.7368 18.5605 12.7368H14.3856C14.0564 12.7368 13.7892 12.9962 13.7892 13.3158V17.9474C13.7892 18.2669 14.0564 18.5263 14.3856 18.5263H18.5605C18.8897 18.5263 19.1569 18.2669 19.1569 17.9474ZM4.21644 0C3.74498 0 3.31794 0.2695 3.12649 0.6875L0.131296 7.22816C-0.0846067 7.70145 -0.0324203 8.22105 0.274435 8.646C0.5631 9.04547 1.05246 9.26316 1.55494 9.26316H2.06368C2.73167 9.26316 3.32212 8.82605 3.50104 8.20368L5.84793 0H4.21644ZM7.0855 0L4.95928 7.42789C4.83403 7.86789 4.92647 8.32816 5.20977 8.69289C5.49307 9.05474 5.92547 9.26316 6.39664 9.26316H7.14812C7.91153 9.26316 8.54671 8.71026 8.63021 7.975L9.54571 0H7.0855ZM13.2554 0H10.7445L9.90356 7.33526C9.84988 7.82447 10.0109 8.31658 10.3509 8.68421C10.6938 9.05763 11.168 9.26316 11.6839 9.26316H12.3161C12.832 9.26316 13.3061 9.05763 13.649 8.68421C13.989 8.31658 14.15 7.82447 14.0964 7.33526L13.2554 0ZM16.9144 0H14.4542L15.3697 7.975C15.4532 8.71026 16.0884 9.26316 16.8518 9.26316H17.6033C18.0744 9.26316 18.5068 9.05474 18.7901 8.69289C19.0734 8.32816 19.1659 7.86789 19.0406 7.42789L16.9144 0ZM20.8734 0.6875C20.682 0.2695 20.2546 0 19.7835 0H18.152L20.4989 8.20368C20.6778 8.82605 21.2682 9.26316 21.9362 9.26316H22.445C22.9478 9.26316 23.4371 9.04547 23.7255 8.646C24.0326 8.22105 24.0845 7.70116 23.8686 7.22816L20.8734 0.6875Z"
        fill="white" />
</svg>
    