<svg width="31" height="31" viewBox="0 0 31 31" fill="none" xmlns="http://www.w3.org/2000/svg">
    <path
        d="M26.1824 26.1416C31.9498 20.338 31.9498 10.9286 26.1824 5.125C20.415 -0.678569 11.0642 -0.678573 5.2968 5.125C-0.470589 10.9286 -0.470599 20.338 5.29679 26.1416C11.0642 31.9452 20.415 31.9452 26.1824 26.1416Z"
        fill="url(#paint0_linear_0_1)"/>
    <path opacity="0.3"
          d="M15.7397 29.0314C7.82801 29.0314 1.38989 22.767 1.00718 14.901C0.994656 15.1458 0.969604 15.3851 0.969604 15.6317C0.969604 23.8396 7.58121 30.4926 15.738 30.4926C23.8947 30.4926 30.5063 23.8396 30.5063 15.6317C30.5063 15.3851 30.4813 15.144 30.4687 14.901C30.0878 22.767 23.6479 29.0314 15.7362 29.0314H15.7397Z"
          fill="black"/>
    <path opacity="0.3"
          d="M15.7398 2.16536C23.6623 2.16536 30.1093 8.44772 30.4742 16.3299C30.4849 16.0978 30.5099 15.8692 30.5099 15.6335C30.5099 7.42555 23.8983 0.772482 15.7416 0.772482C7.58485 0.772482 0.973267 7.42555 0.973267 15.6335C0.973267 15.8692 0.996528 16.0978 1.00905 16.3299C1.37387 8.44772 7.81913 2.16536 15.7416 2.16536H15.7398Z"
          fill="white"/>
    <path
        d="M22.978 22.9171C26.9756 18.8944 26.9756 12.3722 22.978 8.34951C18.9803 4.32678 12.4989 4.32678 8.50121 8.34951C4.50356 12.3722 4.50355 18.8944 8.5012 22.9171C12.4988 26.9398 18.9803 26.9398 22.978 22.9171Z"
        fill="url(#paint1_linear_0_1)"/>
    <path opacity="0.3"
          d="M15.7397 24.6116C10.3085 24.6116 5.87689 20.352 5.53531 14.9712C5.521 15.1908 5.50134 15.4103 5.50134 15.6335C5.50134 21.3238 10.0849 25.9343 15.738 25.9343C21.391 25.9343 25.9746 21.322 25.9746 15.6335C25.9746 15.4103 25.9549 15.1908 25.9406 14.9712C25.6008 20.3502 21.1692 24.6116 15.7362 24.6116H15.7397Z"
          fill="white"/>
    <path opacity="0.3"
          d="M21.2623 4.57502C21.2623 5.18328 20.7723 5.67457 20.1696 5.67457C19.5669 5.67457 19.0769 5.18148 19.0769 4.57502C19.0769 3.96856 19.5669 3.47547 20.1696 3.47547C20.7723 3.47547 21.2623 3.96856 21.2623 4.57502Z"
          fill="white"/>
    <path opacity="0.3"
          d="M23.5763 5.67455C23.5763 6.07586 23.2526 6.40158 22.8538 6.40158C22.455 6.40158 22.1313 6.07586 22.1313 5.67455C22.1313 5.27324 22.455 4.94752 22.8538 4.94752C23.2526 4.94752 23.5763 5.27324 23.5763 5.67455Z"
          fill="white"/>
    <defs>
        <linearGradient id="paint0_linear_0_1" x1="15.7396" y1="30.4941" x2="15.7396" y2="0.772089"
                        gradientUnits="userSpaceOnUse">
            <stop stop-color="#D36856"/>
            <stop offset="0.47" stop-color="#F1B010"/>
            <stop offset="1" stop-color="#ECC157"/>
        </linearGradient>
        <linearGradient id="paint1_linear_0_1" x1="54.5" y1="81.5" x2="9.99995" y2="1.00005"
                        gradientUnits="userSpaceOnUse">
            <stop stop-color="#B23230"/>
            <stop offset="0.53" stop-color="#E8F974"/>
            <stop offset="1" stop-color="#ED7846"/>
        </linearGradient>
    </defs>
</svg>
