<svg width="32" height="27" viewBox="0 0 32 27" fill="none" xmlns="http://www.w3.org/2000/svg">
    <mask id="path-1-outside-1_0_1063" maskUnits="userSpaceOnUse" x="-1" y="-1" width="35" height="29" fill="black">
        <rect fill="white" x="-1" y="-1" width="35" height="29"/>
        <path
            d="M0.92293 11V0.499999H3.45693C4.7076 0.499999 5.6876 0.952666 6.39693 1.858C7.1156 2.754 7.47493 4.05133 7.47493 5.75C7.47493 7.43933 7.1156 8.73667 6.39693 9.642C5.6876 10.5473 4.7076 11 3.45693 11H0.92293ZM2.98093 9.292H3.45693C4.0356 9.292 4.49293 9.01667 4.82893 8.466C5.17426 7.91533 5.34693 7.01 5.34693 5.75C5.34693 4.49 5.17426 3.58467 4.82893 3.034C4.49293 2.48333 4.0356 2.208 3.45693 2.208H2.98093V9.292ZM12.1853 11.196C11.1586 11.196 10.3793 10.8927 9.84727 10.286C9.31527 9.67 9.04927 8.774 9.04927 7.598V0.499999H11.1073V7.892C11.1073 8.34933 11.2053 8.718 11.4013 8.998C11.5973 9.26867 11.8913 9.404 12.2833 9.404C12.6753 9.404 12.9693 9.26867 13.1653 8.998C13.3613 8.718 13.4593 8.34933 13.4593 7.892V0.499999H15.3773V7.598C15.3773 8.27933 15.2699 8.89067 15.0553 9.432C14.8499 9.97333 14.5139 10.4027 14.0473 10.72C13.5806 11.0373 12.9599 11.196 12.1853 11.196ZM20.4236 11.196C19.621 11.196 18.963 10.9673 18.4496 10.51C17.9363 10.0527 17.5583 9.41333 17.3156 8.592C17.0729 7.77067 16.9516 6.82333 16.9516 5.75C16.9516 3.97667 17.2363 2.62333 17.8056 1.69C18.3843 0.756666 19.2663 0.289999 20.4516 0.289999C21.1143 0.289999 21.6696 0.457999 22.1176 0.794C22.5656 1.12067 22.911 1.55467 23.1536 2.096C23.4056 2.63733 23.5456 3.22533 23.5736 3.86L21.6556 4.266C21.6369 3.94867 21.5856 3.622 21.5016 3.286C21.427 2.95 21.301 2.66533 21.1236 2.432C20.9463 2.19867 20.699 2.082 20.3816 2.082C19.9336 2.082 19.607 2.36667 19.4016 2.936C19.2056 3.496 19.1076 4.434 19.1076 5.75C19.1076 6.646 19.1496 7.36 19.2336 7.892C19.3176 8.424 19.4576 8.81133 19.6536 9.054C19.8496 9.28733 20.1063 9.404 20.4236 9.404C20.7316 9.404 20.9696 9.306 21.1376 9.11C21.3056 8.914 21.427 8.66667 21.5016 8.368C21.5856 8.06 21.6369 7.74733 21.6556 7.43L23.5736 7.64C23.5363 8.24667 23.3963 8.82533 23.1536 9.376C22.9203 9.91733 22.5796 10.356 22.1316 10.692C21.6836 11.028 21.1143 11.196 20.4236 11.196ZM25.1145 11V0.499999H27.1725V5.512L29.7625 0.289999L31.4705 0.976L29.2725 5.26L31.7085 10.538L29.8185 11.224L27.9005 6.842L27.1725 8.256V11H25.1145ZM5.32057 26.224C4.72324 26.224 4.18657 26.112 3.71057 25.888C3.23457 25.6547 2.86124 25.3047 2.59057 24.838C2.3199 24.362 2.18457 23.76 2.18457 23.032L4.03257 22.822C4.03257 23.3353 4.14457 23.7507 4.36857 24.068C4.6019 24.3853 4.93324 24.544 5.36257 24.544C5.71724 24.544 5.98324 24.4413 6.16057 24.236C6.3379 24.0213 6.42657 23.7367 6.42657 23.382C6.42657 22.9993 6.32857 22.7007 6.13257 22.486C5.93657 22.2713 5.68457 22.0753 5.37657 21.898L4.10257 21.156C3.6079 20.8667 3.1879 20.484 2.84257 20.008C2.50657 19.5227 2.33857 18.9393 2.33857 18.258C2.33857 17.698 2.4599 17.1987 2.70257 16.76C2.95457 16.312 3.3139 15.9573 3.78057 15.696C4.25657 15.4347 4.82124 15.304 5.47457 15.304C6.3519 15.304 7.05657 15.556 7.58857 16.06C8.1299 16.564 8.4099 17.32 8.42857 18.328L6.58057 18.734C6.58057 17.5673 6.1979 16.984 5.43257 16.984C5.11524 16.984 4.86324 17.082 4.67657 17.278C4.49924 17.474 4.41057 17.7447 4.41057 18.09C4.41057 18.426 4.49457 18.7013 4.66257 18.916C4.8399 19.1307 5.08724 19.3313 5.40457 19.518L6.66457 20.274C7.24324 20.6193 7.6959 21.03 8.02257 21.506C8.35857 21.9727 8.52657 22.5513 8.52657 23.242C8.52657 23.8673 8.39124 24.404 8.12057 24.852C7.8499 25.3 7.4719 25.6407 6.98657 25.874C6.51057 26.1073 5.95524 26.224 5.32057 26.224ZM10.0896 26V15.5H12.1336V24.278H15.5356L15.3256 26H10.0896ZM19.7117 26.196C18.909 26.196 18.251 25.972 17.7377 25.524C17.2337 25.076 16.865 24.446 16.6317 23.634C16.3984 22.8127 16.2817 21.8513 16.2817 20.75C16.2817 19.6393 16.3984 18.678 16.6317 17.866C16.865 17.054 17.2337 16.424 17.7377 15.976C18.251 15.528 18.909 15.304 19.7117 15.304C20.5237 15.304 21.1817 15.528 21.6857 15.976C22.1897 16.424 22.5584 17.054 22.7917 17.866C23.025 18.678 23.1417 19.6393 23.1417 20.75C23.1417 21.8513 23.025 22.8127 22.7917 23.634C22.5584 24.446 22.1897 25.076 21.6857 25.524C21.1817 25.972 20.5237 26.196 19.7117 26.196ZM19.7117 24.404C20.001 24.404 20.2297 24.306 20.3977 24.11C20.575 23.914 20.7057 23.6433 20.7897 23.298C20.8737 22.9527 20.925 22.5607 20.9437 22.122C20.9717 21.6833 20.9857 21.226 20.9857 20.75C20.9857 20.274 20.9717 19.8167 20.9437 19.378C20.925 18.9393 20.8737 18.5473 20.7897 18.202C20.7057 17.8567 20.575 17.586 20.3977 17.39C20.2297 17.194 20.001 17.096 19.7117 17.096C19.4224 17.096 19.1937 17.194 19.0257 17.39C18.8577 17.586 18.7317 17.8567 18.6477 18.202C18.5637 18.5473 18.5077 18.9393 18.4797 19.378C18.4517 19.8167 18.4377 20.274 18.4377 20.75C18.4377 21.226 18.4517 21.6833 18.4797 22.122C18.5077 22.5607 18.5637 22.9527 18.6477 23.298C18.7317 23.6433 18.8577 23.914 19.0257 24.11C19.1937 24.306 19.4224 24.404 19.7117 24.404ZM25.9142 26V17.208H23.8702V15.5H30.0442L29.8482 17.208H27.9582V26H25.9142Z"/>
    </mask>
    <path
        d="M0.92293 11H-0.0770704V12H0.92293V11ZM0.92293 0.499999V-0.500001H-0.0770704V0.499999H0.92293ZM6.39693 1.858L5.60972 2.47479L5.61685 2.48368L6.39693 1.858ZM6.39693 9.642L5.61369 9.02025L5.60977 9.02525L6.39693 9.642ZM2.98093 9.292H1.98093V10.292H2.98093V9.292ZM4.82893 8.466L3.98168 7.93467L3.97529 7.94514L4.82893 8.466ZM4.82893 3.034L3.97523 3.5549L3.98174 3.56529L4.82893 3.034ZM2.98093 2.208V1.208H1.98093V2.208H2.98093ZM1.92293 11V0.499999H-0.0770704V11H1.92293ZM0.92293 1.5H3.45693V-0.500001H0.92293V1.5ZM3.45693 1.5C4.43112 1.5 5.10824 1.83464 5.60977 2.47475L7.18409 1.24125C6.26695 0.0706936 4.98407 -0.500001 3.45693 -0.500001V1.5ZM5.61685 2.48368C6.13904 3.13473 6.47493 4.17385 6.47493 5.75H8.47493C8.47493 3.92881 8.09215 2.37327 7.17701 1.23231L5.61685 2.48368ZM6.47493 5.75C6.47493 7.31429 6.1401 8.35715 5.6137 9.02026L7.18016 10.2637C8.0911 9.11619 8.47493 7.56438 8.47493 5.75H6.47493ZM5.60977 9.02525C5.10824 9.66536 4.43112 10 3.45693 10V12C4.98407 12 6.26695 11.4293 7.18409 10.2587L5.60977 9.02525ZM3.45693 10H0.92293V12H3.45693V10ZM2.98093 10.292H3.45693V8.292H2.98093V10.292ZM3.45693 10.292C4.4295 10.292 5.1899 9.7943 5.68257 8.98687L3.97529 7.94514C3.79596 8.23903 3.64169 8.292 3.45693 8.292V10.292ZM5.67612 8.99729C6.17798 8.19702 6.34693 7.0508 6.34693 5.75H4.34693C4.34693 6.9692 4.17054 7.63365 3.98174 7.93471L5.67612 8.99729ZM6.34693 5.75C6.34693 4.4492 6.17798 3.30298 5.67612 2.50271L3.98174 3.56529C4.17054 3.86635 4.34693 4.5308 4.34693 5.75H6.34693ZM5.68257 2.51314C5.1899 1.7057 4.4295 1.208 3.45693 1.208V3.208C3.64169 3.208 3.79596 3.26097 3.97529 3.55486L5.68257 2.51314ZM3.45693 1.208H2.98093V3.208H3.45693V1.208ZM1.98093 2.208V9.292H3.98093V2.208H1.98093ZM9.84727 10.286L9.09043 10.9396L9.09541 10.9453L9.84727 10.286ZM9.04927 0.499999V-0.500001H8.04927V0.499999H9.04927ZM11.1073 0.499999H12.1073V-0.500001H11.1073V0.499999ZM11.4013 8.998L10.582 9.57146L10.5866 9.57802L10.5913 9.58451L11.4013 8.998ZM13.1653 8.998L13.9752 9.58451L13.9799 9.57802L13.9845 9.57146L13.1653 8.998ZM13.4593 0.499999V-0.500001H12.4593V0.499999H13.4593ZM15.3773 0.499999H16.3773V-0.500001H15.3773V0.499999ZM15.0553 9.432L14.1257 9.06337L14.1229 9.07034L14.1203 9.07735L15.0553 9.432ZM14.0473 10.72L13.485 9.89307L14.0473 10.72ZM12.1853 10.196C11.3624 10.196 10.8921 9.96071 10.5991 9.62668L9.09541 10.9453C9.86649 11.8246 10.9548 12.196 12.1853 12.196V10.196ZM10.6041 9.63238C10.2861 9.26412 10.0493 8.63882 10.0493 7.598H8.04927C8.04927 8.90918 8.34449 10.0759 9.09045 10.9396L10.6041 9.63238ZM10.0493 7.598V0.499999H8.04927V7.598H10.0493ZM9.04927 1.5H11.1073V-0.500001H9.04927V1.5ZM10.1073 0.499999V7.892H12.1073V0.499999H10.1073ZM10.1073 7.892C10.1073 8.48625 10.2345 9.075 10.582 9.57146L12.2205 8.42454C12.176 8.361 12.1073 8.21242 12.1073 7.892H10.1073ZM10.5913 9.58451C11.0096 10.1622 11.6338 10.404 12.2833 10.404V8.404C12.2017 8.404 12.1781 8.39005 12.1869 8.39412C12.191 8.39602 12.1978 8.39991 12.2047 8.4056C12.2114 8.41118 12.2133 8.41442 12.2112 8.41149L10.5913 9.58451ZM12.2833 10.404C12.9327 10.404 13.5569 10.1622 13.9752 9.58451L12.3553 8.41149C12.3532 8.41442 12.3552 8.41118 12.3619 8.4056C12.3687 8.39991 12.3755 8.39602 12.3796 8.39412C12.3885 8.39005 12.3648 8.404 12.2833 8.404V10.404ZM13.9845 9.57146C14.332 9.075 14.4593 8.48625 14.4593 7.892H12.4593C12.4593 8.21242 12.3905 8.361 12.346 8.42454L13.9845 9.57146ZM14.4593 7.892V0.499999H12.4593V7.892H14.4593ZM13.4593 1.5H15.3773V-0.500001H13.4593V1.5ZM14.3773 0.499999V7.598H16.3773V0.499999H14.3773ZM14.3773 7.598C14.3773 8.17422 14.2866 8.65751 14.1257 9.06337L15.9849 9.80063C16.2532 9.12382 16.3773 8.38444 16.3773 7.598H14.3773ZM14.1203 9.07735C13.9857 9.43204 13.7772 9.69433 13.485 9.89307L14.6096 11.5469C15.2506 11.111 15.7141 10.5146 15.9903 9.78665L14.1203 9.07735ZM13.485 9.89307C13.2355 10.0627 12.832 10.196 12.1853 10.196V12.196C13.0878 12.196 13.9257 12.0119 14.6096 11.5469L13.485 9.89307ZM18.4496 10.51L17.7844 11.2567L18.4496 10.51ZM17.3156 8.592L16.3566 8.87535L17.3156 8.592ZM17.8056 1.69L16.9557 1.16305L16.9519 1.16924L17.8056 1.69ZM22.1176 0.794L21.5176 1.59407L21.5284 1.60201L22.1176 0.794ZM23.1536 2.096L22.2411 2.50506L22.244 2.51156L22.247 2.51803L23.1536 2.096ZM23.5736 3.86L23.7807 4.83832L24.61 4.66278L24.5726 3.81593L23.5736 3.86ZM21.6556 4.266L20.6573 4.32472L20.7256 5.48502L21.8627 5.24432L21.6556 4.266ZM21.5016 3.286L20.5254 3.50293L20.5283 3.51577L20.5315 3.52854L21.5016 3.286ZM21.1236 2.432L21.9198 1.82692V1.82692L21.1236 2.432ZM19.4016 2.936L18.4609 2.59672L18.4578 2.60565L19.4016 2.936ZM19.2336 7.892L20.2214 7.73604L19.2336 7.892ZM19.6536 9.054L18.8757 9.68234L18.8817 9.68982L18.8879 9.69719L19.6536 9.054ZM21.5016 8.368L20.5369 8.10488L20.5341 8.11514L20.5315 8.12546L21.5016 8.368ZM21.6556 7.43L21.7645 6.43594L20.7191 6.32148L20.6573 7.37128L21.6556 7.43ZM23.5736 7.64L24.5717 7.70142L24.6303 6.74972L23.6825 6.64594L23.5736 7.64ZM23.1536 9.376L22.2385 8.97273L22.2353 8.98017L23.1536 9.376ZM22.1316 10.692L21.5316 9.892L22.1316 10.692ZM20.4236 10.196C19.8227 10.196 19.4149 10.0307 19.1148 9.76334L17.7844 11.2567C18.511 11.904 19.4192 12.196 20.4236 12.196V10.196ZM19.1148 9.76334C18.7712 9.45723 18.4774 8.99493 18.2746 8.30865L16.3566 8.87535C16.6392 9.83174 17.1013 10.6481 17.7844 11.2567L19.1148 9.76334ZM18.2746 8.30865C18.065 7.59914 17.9516 6.75054 17.9516 5.75H15.9516C15.9516 6.89613 16.0809 7.9422 16.3566 8.87535L18.2746 8.30865ZM17.9516 5.75C17.9516 4.05739 18.2279 2.91793 18.6593 2.21076L16.9519 1.16924C16.2446 2.32873 15.9516 3.89595 15.9516 5.75H17.9516ZM18.6555 2.21694C19.0351 1.60476 19.5793 1.29 20.4516 1.29V-0.710001C18.9532 -0.710001 17.7335 -0.0914249 16.9557 1.16306L18.6555 2.21694ZM20.4516 1.29C20.9389 1.29 21.2729 1.41042 21.5176 1.594L22.7176 -0.00600039C22.0664 -0.494426 21.2897 -0.710001 20.4516 -0.710001V1.29ZM21.5284 1.60201C21.8259 1.81893 22.0645 2.11109 22.2411 2.50506L24.0661 1.68694C23.7574 0.998241 23.3053 0.422404 22.7068 -0.0140076L21.5284 1.60201ZM22.247 2.51803C22.4403 2.93319 22.552 3.39176 22.5746 3.90407L24.5726 3.81593C24.5392 3.05891 24.3709 2.34147 24.0602 1.67397L22.247 2.51803ZM23.3665 2.88168L21.4485 3.28768L21.8627 5.24432L23.7807 4.83832L23.3665 2.88168ZM22.6539 4.20728C22.6313 3.8227 22.5695 3.43442 22.4718 3.04346L20.5315 3.52854C20.6017 3.80958 20.6426 4.07463 20.6573 4.32472L22.6539 4.20728ZM22.4778 3.06907C22.3772 2.61656 22.1983 2.19345 21.9198 1.82692L20.3275 3.03708C20.4036 3.13721 20.4767 3.28344 20.5254 3.50293L22.4778 3.06907ZM21.9198 1.82692C21.5359 1.32188 20.9815 1.082 20.3816 1.082V3.082C20.3997 3.082 20.4064 3.08366 20.4042 3.08319C20.4015 3.08264 20.392 3.08028 20.3785 3.07393C20.3648 3.06749 20.352 3.05924 20.3415 3.05056C20.3312 3.04207 20.3269 3.0363 20.3275 3.03708L21.9198 1.82692ZM20.3816 1.082C19.9251 1.082 19.4957 1.23478 19.1436 1.54159C18.8111 1.83138 18.5996 2.21219 18.4609 2.59673L20.3423 3.27526C20.409 3.09048 20.4635 3.04429 20.4576 3.04941C20.452 3.05426 20.4365 3.06547 20.4133 3.07401C20.3906 3.08236 20.3772 3.082 20.3816 3.082V1.082ZM18.4578 2.60565C18.2013 3.33828 18.1076 4.42474 18.1076 5.75H20.1076C20.1076 4.44326 20.2099 3.65372 20.3455 3.26635L18.4578 2.60565ZM18.1076 5.75C18.1076 6.66883 18.1501 7.44177 18.2459 8.04796L20.2214 7.73604C20.1491 7.27823 20.1076 6.62317 20.1076 5.75H18.1076ZM18.2459 8.04796C18.3398 8.64324 18.5161 9.23713 18.8757 9.68234L20.4316 8.42566C20.3992 8.38554 20.2954 8.20476 20.2214 7.73604L18.2459 8.04796ZM18.8879 9.69719C19.2828 10.1672 19.8249 10.404 20.4236 10.404V8.404C20.4057 8.404 20.3972 8.40237 20.3962 8.40216C20.3955 8.40202 20.3998 8.40289 20.4069 8.40613C20.4141 8.40941 20.42 8.41321 20.4237 8.41602C20.4271 8.41867 20.4254 8.41801 20.4193 8.41081L18.8879 9.69719ZM20.4236 10.404C20.9615 10.404 21.5019 10.2215 21.8969 9.76079L20.3784 8.45921C20.386 8.45035 20.3972 8.43938 20.412 8.42868C20.4268 8.41798 20.441 8.41051 20.4524 8.40582C20.4754 8.39634 20.4721 8.404 20.4236 8.404V10.404ZM21.8969 9.76079C22.1836 9.42631 22.3666 9.03105 22.4718 8.61054L20.5315 8.12546C20.4873 8.30228 20.4277 8.40169 20.3784 8.45921L21.8969 9.76079ZM22.4664 8.63112C22.5685 8.25662 22.6311 7.87546 22.6539 7.48872L20.6573 7.37128C20.6428 7.6192 20.6027 7.86338 20.5369 8.10488L22.4664 8.63112ZM21.5468 8.42406L23.4648 8.63406L23.6825 6.64594L21.7645 6.43594L21.5468 8.42406ZM22.5755 7.57858C22.5454 8.0685 22.4331 8.53132 22.2385 8.97274L24.0687 9.77926C24.3595 9.11934 24.5272 8.42483 24.5717 7.70142L22.5755 7.57858ZM22.2353 8.98017C22.0672 9.37008 21.8326 9.66623 21.5316 9.892L22.7316 11.492C23.3266 11.0458 23.7733 10.4646 24.0719 9.77183L22.2353 8.98017ZM21.5316 9.892C21.2938 10.0704 20.9494 10.196 20.4236 10.196V12.196C21.2792 12.196 22.0734 11.9856 22.7316 11.492L21.5316 9.892ZM25.1145 11H24.1145V12H25.1145V11ZM25.1145 0.499999V-0.500001H24.1145V0.499999H25.1145ZM27.1725 0.499999H28.1725V-0.500001H27.1725V0.499999ZM27.1725 5.512H26.1725L28.0684 5.95633L27.1725 5.512ZM29.7625 0.289999L30.1352 -0.637952L29.2774 -0.982485L28.8666 -0.15433L29.7625 0.289999ZM31.4705 0.976L32.3602 1.43249L32.8608 0.456773L31.8432 0.0480486L31.4705 0.976ZM29.2725 5.26L28.3828 4.80351L28.1604 5.23684L28.3645 5.67906L29.2725 5.26ZM31.7085 10.538L32.0497 11.478L33.0724 11.1068L32.6165 10.1189L31.7085 10.538ZM29.8185 11.224L28.9024 11.625L29.2783 12.4839L30.1597 12.164L29.8185 11.224ZM27.9005 6.842L28.8166 6.44103L27.9737 4.51525L27.0114 6.38425L27.9005 6.842ZM27.1725 8.256L26.2834 7.79825L26.1725 8.01369V8.256H27.1725ZM27.1725 11V12H28.1725V11H27.1725ZM26.1145 11V0.499999H24.1145V11H26.1145ZM25.1145 1.5H27.1725V-0.500001H25.1145V1.5ZM26.1725 0.499999V5.512H28.1725V0.499999H26.1725ZM28.0684 5.95633L30.6584 0.734329L28.8666 -0.15433L26.2766 5.06767L28.0684 5.95633ZM29.3898 1.21795L31.0978 1.90395L31.8432 0.0480486L30.1352 -0.637952L29.3898 1.21795ZM30.5808 0.519506L28.3828 4.80351L30.1622 5.71649L32.3602 1.43249L30.5808 0.519506ZM28.3645 5.67906L30.8005 10.9571L32.6165 10.1189L30.1805 4.84094L28.3645 5.67906ZM31.3673 9.598L29.4773 10.284L30.1597 12.164L32.0497 11.478L31.3673 9.598ZM30.7346 10.823L28.8166 6.44103L26.9844 7.24297L28.9024 11.625L30.7346 10.823ZM27.0114 6.38425L26.2834 7.79825L28.0616 8.71375L28.7896 7.29975L27.0114 6.38425ZM26.1725 8.256V11H28.1725V8.256H26.1725ZM27.1725 10H25.1145V12H27.1725V10ZM3.71057 25.888L3.27041 26.7859L3.27757 26.7894L3.28477 26.7928L3.71057 25.888ZM2.59057 24.838L1.72125 25.3323L1.72554 25.3397L2.59057 24.838ZM2.18457 23.032L2.07166 22.0384L1.18457 22.1392V23.032H2.18457ZM4.03257 22.822H5.03257V21.7019L3.91966 21.8284L4.03257 22.822ZM4.36857 24.068L3.5516 24.6447L3.55718 24.6526L3.56292 24.6604L4.36857 24.068ZM6.16057 24.236L6.91739 24.8896L6.92455 24.8813L6.93153 24.8729L6.16057 24.236ZM6.13257 22.486L5.39408 23.1603L6.13257 22.486ZM5.37657 21.898L4.87328 22.7621L4.87761 22.7646L5.37657 21.898ZM4.10257 21.156L3.59769 22.0192L3.59929 22.0201L4.10257 21.156ZM2.84257 20.008L2.02038 20.5772L2.02666 20.5863L2.03315 20.5952L2.84257 20.008ZM2.70257 16.76L1.83097 16.2697L1.82754 16.2759L2.70257 16.76ZM3.78057 15.696L3.29929 14.8194L3.29197 14.8235L3.78057 15.696ZM7.58857 16.06L6.9008 16.786L6.90715 16.7919L7.58857 16.06ZM8.42857 18.328L8.64315 19.3047L9.44357 19.1289L9.4284 18.3095L8.42857 18.328ZM6.58057 18.734H5.58057V19.9775L6.79515 19.7107L6.58057 18.734ZM4.67657 17.278L3.95243 16.5883L3.94361 16.5976L3.93503 16.6071L4.67657 17.278ZM4.66257 18.916L3.87507 19.5323L3.8832 19.5427L3.89161 19.5529L4.66257 18.916ZM5.40457 19.518L5.91909 18.6605L5.91159 18.6561L5.40457 19.518ZM6.66457 20.274L6.15007 21.1315L6.15211 21.1327L6.66457 20.274ZM8.02257 21.506L7.19806 22.0718L7.20444 22.0811L7.21104 22.0903L8.02257 21.506ZM8.12057 24.852L8.97649 25.3691L8.12057 24.852ZM6.98657 25.874L6.55326 24.9727L6.54641 24.9761L6.98657 25.874ZM5.32057 25.224C4.85046 25.224 4.4622 25.1365 4.13637 24.9832L3.28477 26.7928C3.91094 27.0875 4.59601 27.224 5.32057 27.224V25.224ZM4.15073 24.9901C3.85575 24.8455 3.62884 24.635 3.4556 24.3363L1.72554 25.3397C2.09364 25.9744 2.61339 26.4639 3.27041 26.7859L4.15073 24.9901ZM3.45986 24.3437C3.29854 24.06 3.18457 23.6419 3.18457 23.032H1.18457C1.18457 23.8781 1.34127 24.664 1.72128 25.3323L3.45986 24.3437ZM2.29748 24.0256L4.14548 23.8156L3.91966 21.8284L2.07166 22.0384L2.29748 24.0256ZM3.03257 22.822C3.03257 23.4762 3.17553 24.1119 3.5516 24.6447L5.18554 23.4913C5.11361 23.3894 5.03257 23.1945 5.03257 22.822H3.03257ZM3.56292 24.6604C4.00355 25.2597 4.64839 25.544 5.36257 25.544V23.544C5.27231 23.544 5.23388 23.5278 5.22398 23.5231C5.21703 23.5198 5.20083 23.5118 5.17422 23.4756L3.56292 24.6604ZM5.36257 25.544C5.91272 25.544 6.49568 25.3779 6.91739 24.8896L5.40375 23.5824C5.41394 23.5706 5.42657 23.5591 5.44039 23.5495C5.45401 23.54 5.46431 23.5355 5.46799 23.5341C5.47409 23.5317 5.44572 23.544 5.36257 23.544V25.544ZM6.93153 24.8729C7.2936 24.4346 7.42657 23.9041 7.42657 23.382H5.42657C5.42657 23.477 5.4146 23.5343 5.40531 23.5641C5.39685 23.5913 5.38982 23.5989 5.38961 23.5991L6.93153 24.8729ZM7.42657 23.382C7.42657 22.8306 7.28283 22.2627 6.87106 21.8117L5.39408 23.1603C5.38911 23.1548 5.39439 23.1568 5.40291 23.1828C5.41262 23.2124 5.42657 23.2744 5.42657 23.382H7.42657ZM6.87106 21.8117C6.59214 21.5063 6.25369 21.2491 5.87554 21.0314L4.87761 22.7646C5.11545 22.9016 5.281 23.0364 5.39408 23.1603L6.87106 21.8117ZM5.87985 21.0339L4.60585 20.2919L3.59929 22.0201L4.87329 22.7621L5.87985 21.0339ZM4.60745 20.2928C4.23548 20.0752 3.9182 19.7877 3.65199 19.4208L2.03315 20.5952C2.45761 21.1803 2.98033 21.6581 3.59769 22.0192L4.60745 20.2928ZM3.66476 19.4388C3.46168 19.1455 3.33857 18.7683 3.33857 18.258H1.33857C1.33857 19.1104 1.55146 19.8999 2.02038 20.5772L3.66476 19.4388ZM3.33857 18.258C3.33857 17.8471 3.42616 17.5178 3.5776 17.2441L1.82754 16.2759C1.49365 16.8795 1.33857 17.5489 1.33857 18.258H3.33857ZM3.57415 17.2503C3.73229 16.9691 3.95605 16.7439 4.26917 16.5685L3.29197 14.8235C2.67176 15.1708 2.17685 15.6549 1.83099 16.2697L3.57415 17.2503ZM4.26183 16.5726C4.56314 16.4072 4.95544 16.304 5.47457 16.304V14.304C4.68703 14.304 3.95 14.4622 3.29931 14.8194L4.26183 16.5726ZM5.47457 16.304C6.14963 16.304 6.59014 16.4916 6.90083 16.786L8.27632 15.334C7.523 14.6204 6.55417 14.304 5.47457 14.304V16.304ZM6.90715 16.7919C7.18634 17.0518 7.41322 17.5082 7.42874 18.3465L9.4284 18.3095C9.40659 17.1318 9.07347 16.0762 8.26999 15.3281L6.90715 16.7919ZM8.21399 17.3513L6.36599 17.7573L6.79515 19.7107L8.64315 19.3047L8.21399 17.3513ZM7.58057 18.734C7.58057 18.0732 7.47797 17.4039 7.12971 16.873C6.73326 16.2686 6.1135 15.984 5.43257 15.984V17.984C5.49599 17.984 5.50282 17.9956 5.48182 17.9849C5.45703 17.9723 5.44915 17.9574 5.45743 17.97C5.49184 18.0225 5.58057 18.2282 5.58057 18.734H7.58057ZM5.43257 15.984C4.89283 15.984 4.3605 16.1599 3.95243 16.5883L5.40071 17.9677C5.39817 17.9703 5.39303 17.9751 5.38556 17.9801C5.37808 17.9851 5.37165 17.9881 5.36802 17.9895C5.36027 17.9925 5.37675 17.984 5.43257 17.984V15.984ZM3.93503 16.6071C3.54559 17.0375 3.41057 17.5746 3.41057 18.09H5.41057C5.41057 18.0014 5.4221 17.9554 5.42738 17.9393C5.43152 17.9267 5.43058 17.9351 5.41811 17.9489L3.93503 16.6071ZM3.41057 18.09C3.41057 18.5961 3.5398 19.1039 3.87507 19.5323L5.45008 18.2997C5.44934 18.2988 5.41057 18.2559 5.41057 18.09H3.41057ZM3.89161 19.5529C4.16274 19.8811 4.51028 20.1521 4.89755 20.3799L5.91159 18.6561C5.66419 18.5105 5.51706 18.3802 5.43353 18.2791L3.89161 19.5529ZM4.89007 20.3755L6.15007 21.1315L7.17907 19.4165L5.91907 18.6605L4.89007 20.3755ZM6.15211 21.1327C6.62742 21.4164 6.96561 21.7331 7.19806 22.0718L8.84708 20.9402C8.4262 20.3269 7.85905 19.8223 7.17703 19.4153L6.15211 21.1327ZM7.21104 22.0903C7.40149 22.3548 7.52657 22.7179 7.52657 23.242H9.52657C9.52657 22.3848 9.31565 21.5905 8.8341 20.9217L7.21104 22.0903ZM7.52657 23.242C7.52657 23.7208 7.42416 24.0709 7.26466 24.3349L8.97649 25.3691C9.35832 24.7371 9.52657 24.0139 9.52657 23.242H7.52657ZM7.26466 24.3349C7.09755 24.6115 6.86874 24.8211 6.55328 24.9727L7.41987 26.7753C8.07507 26.4602 8.60226 25.9885 8.97649 25.3691L7.26466 24.3349ZM6.54641 24.9761C6.23185 25.1303 5.83242 25.224 5.32057 25.224V27.224C6.07806 27.224 6.78929 27.0844 7.42673 26.7719L6.54641 24.9761ZM10.0896 26H9.08965V27H10.0896V26ZM10.0896 15.5V14.5H9.08965V15.5H10.0896ZM12.1336 15.5H13.1336V14.5H12.1336V15.5ZM12.1336 24.278H11.1336V25.278H12.1336V24.278ZM15.5356 24.278L16.5283 24.3991L16.665 23.278H15.5356V24.278ZM15.3256 26V27H16.2111L16.3183 26.1211L15.3256 26ZM11.0896 26V15.5H9.08965V26H11.0896ZM10.0896 16.5H12.1336V14.5H10.0896V16.5ZM11.1336 15.5V24.278H13.1336V15.5H11.1336ZM12.1336 25.278H15.5356V23.278H12.1336V25.278ZM14.543 24.1569L14.333 25.8789L16.3183 26.1211L16.5283 24.3991L14.543 24.1569ZM15.3256 25H10.0896V27H15.3256V25ZM17.7377 25.524L17.0733 26.2714L17.0802 26.2774L17.7377 25.524ZM16.6317 23.634L15.6698 23.9073L15.6706 23.9102L16.6317 23.634ZM16.6317 17.866L17.5928 18.1422L16.6317 17.866ZM17.7377 15.976L17.0801 15.2225L17.0733 15.2286L17.7377 15.976ZM21.6857 15.976L21.0213 16.7234L21.6857 15.976ZM22.7917 17.866L23.7528 17.5898V17.5898L22.7917 17.866ZM22.7917 23.634L23.7528 23.9102L23.7536 23.9073L22.7917 23.634ZM21.6857 25.524L21.0213 24.7766L21.6857 25.524ZM20.3977 24.11L19.6562 23.4391L19.6472 23.449L19.6384 23.4592L20.3977 24.11ZM20.9437 22.122L19.9457 22.0583L19.9451 22.0689L19.9446 22.0795L20.9437 22.122ZM20.9437 19.378L19.9446 19.4205L19.9451 19.4311L19.9457 19.4417L20.9437 19.378ZM20.3977 17.39L19.6384 18.0408L19.6472 18.051L19.6562 18.0609L20.3977 17.39ZM19.0257 17.39L19.785 18.0408V18.0408L19.0257 17.39ZM18.4797 19.378L17.4817 19.3143V19.3143L18.4797 19.378ZM18.4797 22.122L17.4817 22.1857L18.4797 22.122ZM19.7117 25.196C19.1054 25.196 18.6949 25.0321 18.3952 24.7706L17.0802 26.2774C17.8072 26.9119 18.7127 27.196 19.7117 27.196V25.196ZM18.4021 24.7766C18.0714 24.4827 17.787 24.0336 17.5928 23.3578L15.6706 23.9102C15.9431 24.8584 16.3959 25.6693 17.0733 26.2714L18.4021 24.7766ZM17.5936 23.3607C17.3916 22.6497 17.2817 21.7842 17.2817 20.75H15.2817C15.2817 21.9185 15.4051 22.9757 15.6698 23.9073L17.5936 23.3607ZM17.2817 20.75C17.2817 19.7052 17.3919 18.8413 17.5928 18.1422L15.6706 17.5898C15.4048 18.5147 15.2817 19.5734 15.2817 20.75H17.2817ZM17.5928 18.1422C17.787 17.4664 18.0714 17.0173 18.4021 16.7234L17.0733 15.2286C16.3959 15.8307 15.9431 16.6416 15.6706 17.5898L17.5928 18.1422ZM18.3952 16.7294C18.6949 16.4679 19.1054 16.304 19.7117 16.304V14.304C18.7127 14.304 17.8072 14.5881 17.0802 15.2226L18.3952 16.7294ZM19.7117 16.304C20.3313 16.304 20.7362 16.4699 21.0213 16.7234L22.3501 15.2286C21.6272 14.5861 20.7161 14.304 19.7117 14.304V16.304ZM21.0213 16.7234C21.3519 17.0173 21.6364 17.4664 21.8306 18.1422L23.7528 17.5898C23.4803 16.6416 23.0275 15.8307 22.3501 15.2286L21.0213 16.7234ZM21.8306 18.1422C22.0315 18.8413 22.1417 19.7052 22.1417 20.75H24.1417C24.1417 19.5734 24.0186 18.5147 23.7528 17.5898L21.8306 18.1422ZM22.1417 20.75C22.1417 21.7842 22.0318 22.6497 21.8298 23.3607L23.7536 23.9073C24.0183 22.9757 24.1417 21.9185 24.1417 20.75H22.1417ZM21.8306 23.3578C21.6364 24.0336 21.3519 24.4827 21.0213 24.7766L22.3501 26.2714C23.0275 25.6693 23.4803 24.8584 23.7528 23.9102L21.8306 23.3578ZM21.0213 24.7766C20.7362 25.0301 20.3313 25.196 19.7117 25.196V27.196C20.7161 27.196 21.6272 26.9139 22.3501 26.2714L21.0213 24.7766ZM19.7117 25.404C20.2534 25.404 20.7747 25.2068 21.157 24.7608L19.6384 23.4592C19.6429 23.454 19.6516 23.445 19.6649 23.4352C19.6782 23.4253 19.6926 23.4172 19.7063 23.4114C19.735 23.399 19.7428 23.404 19.7117 23.404V25.404ZM21.1392 24.7809C21.4601 24.4263 21.651 23.988 21.7614 23.5344L19.818 23.0616C19.7604 23.2987 19.69 23.4017 19.6562 23.4391L21.1392 24.7809ZM21.7614 23.5344C21.8639 23.1127 21.922 22.6539 21.9428 22.1645L19.9446 22.0795C19.9281 22.4674 19.8835 22.7926 19.818 23.0616L21.7614 23.5344ZM21.9417 22.1857C21.9711 21.7242 21.9857 21.2455 21.9857 20.75H19.9857C19.9857 21.2065 19.9723 21.6425 19.9457 22.0583L21.9417 22.1857ZM21.9857 20.75C21.9857 20.2545 21.9711 19.7758 21.9417 19.3143L19.9457 19.4417C19.9723 19.8575 19.9857 20.2935 19.9857 20.75H21.9857ZM21.9428 19.3355C21.922 18.8461 21.8639 18.3873 21.7614 17.9656L19.818 18.4384C19.8835 18.7074 19.9281 19.0326 19.9446 19.4205L21.9428 19.3355ZM21.7614 17.9656C21.651 17.512 21.4601 17.0737 21.1392 16.7191L19.6562 18.0609C19.69 18.0983 19.7604 18.2013 19.818 18.4384L21.7614 17.9656ZM21.157 16.7392C20.7747 16.2932 20.2534 16.096 19.7117 16.096V18.096C19.7428 18.096 19.735 18.101 19.7063 18.0886C19.6926 18.0828 19.6782 18.0747 19.6649 18.0648C19.6516 18.055 19.6429 18.046 19.6384 18.0408L21.157 16.7392ZM19.7117 16.096C19.17 16.096 18.6487 16.2932 18.2664 16.7392L19.785 18.0408C19.7805 18.046 19.7718 18.055 19.7585 18.0648C19.7452 18.0747 19.7308 18.0828 19.7171 18.0886C19.6884 18.101 19.6806 18.096 19.7117 18.096V16.096ZM18.2664 16.7392C17.9648 17.0911 17.784 17.5219 17.676 17.9656L19.6194 18.4384C19.6794 18.1914 19.7505 18.0809 19.785 18.0408L18.2664 16.7392ZM17.676 17.9656C17.5755 18.3791 17.5126 18.8305 17.4817 19.3143L19.4777 19.4417C19.5028 19.0482 19.5519 18.7156 19.6194 18.4384L17.676 17.9656ZM17.4817 19.3143C17.4523 19.7758 17.4377 20.2545 17.4377 20.75H19.4377C19.4377 20.2935 19.4511 19.8575 19.4777 19.4417L17.4817 19.3143ZM17.4377 20.75C17.4377 21.2455 17.4523 21.7242 17.4817 22.1857L19.4777 22.0583C19.4511 21.6425 19.4377 21.2065 19.4377 20.75H17.4377ZM17.4817 22.1857C17.5126 22.6695 17.5755 23.1209 17.676 23.5344L19.6194 23.0616C19.5519 22.7844 19.5028 22.4518 19.4777 22.0583L17.4817 22.1857ZM17.676 23.5344C17.784 23.9781 17.9648 24.4089 18.2664 24.7608L19.785 23.4592C19.7505 23.4191 19.6794 23.3086 19.6194 23.0616L17.676 23.5344ZM18.2664 24.7608C18.6487 25.2068 19.17 25.404 19.7117 25.404V23.404C19.6806 23.404 19.6884 23.399 19.7171 23.4114C19.7308 23.4172 19.7452 23.4253 19.7585 23.4352C19.7718 23.445 19.7805 23.454 19.785 23.4592L18.2664 24.7608ZM25.9142 26H24.9142V27H25.9142V26ZM25.9142 17.208H26.9142V16.208H25.9142V17.208ZM23.8702 17.208H22.8702V18.208H23.8702V17.208ZM23.8702 15.5V14.5H22.8702V15.5H23.8702ZM30.0442 15.5L31.0377 15.614L31.1656 14.5H30.0442V15.5ZM29.8482 17.208V18.208H30.7401L30.8417 17.322L29.8482 17.208ZM27.9582 17.208V16.208H26.9582V17.208H27.9582ZM27.9582 26V27H28.9582V26H27.9582ZM26.9142 26V17.208H24.9142V26H26.9142ZM25.9142 16.208H23.8702V18.208H25.9142V16.208ZM24.8702 17.208V15.5H22.8702V17.208H24.8702ZM23.8702 16.5H30.0442V14.5H23.8702V16.5ZM29.0508 15.386L28.8548 17.094L30.8417 17.322L31.0377 15.614L29.0508 15.386ZM29.8482 16.208H27.9582V18.208H29.8482V16.208ZM26.9582 17.208V26H28.9582V17.208H26.9582ZM27.9582 25H25.9142V27H27.9582V25Z"
        fill="white" mask="url(#path-1-outside-1_0_1063)"/>
</svg>
